/* XPM */
static char *_e17b9aec2604ce5870654a494b955f3prlM36FWh7acj2Po[] = {
/* columns rows colors chars-per-pixel */
"110 110 92 1 ",
"  c #3D2D24",
". c #3F3127",
"X c #3D3029",
"o c #412F23",
"O c #412F28",
"+ c #433226",
"@ c #493527",
"# c #45342A",
"$ c #4A362A",
"% c #4D392C",
"& c #533D2E",
"* c #583F2E",
"= c #4E3B31",
"- c #543E31",
"; c #583F30",
": c #57402F",
"> c #5A402F",
", c #564032",
"< c #5C4332",
"1 c #5C4538",
"2 c #624634",
"3 c #654936",
"4 c #6A4B36",
"5 c #614738",
"6 c #654A39",
"7 c #674C3A",
"8 c #684B38",
"9 c #684C38",
"0 c #684D39",
"q c #6B4D38",
"w c #684C3A",
"e c #6B4D3B",
"r c #6D4D39",
"t c #6E4E38",
"y c #6F4F3B",
"u c #714F37",
"i c #714E3A",
"p c #6E5039",
"a c #6E503A",
"s c #6E503B",
"d c #6F513C",
"f c #73513B",
"g c #75523B",
"h c #77533B",
"j c #71533D",
"k c #72523C",
"l c #74533C",
"z c #75543C",
"x c #74543D",
"c c #77553D",
"v c #79553C",
"b c #79563D",
"n c #78553E",
"m c #7A573F",
"M c #7D573E",
"N c #7D583F",
"B c #7E583F",
"V c #755540",
"C c #755640",
"Z c #7A5741",
"A c #775842",
"S c #795840",
"D c #7D5840",
"F c #7D5941",
"G c #7F5941",
"H c #7E5A42",
"J c #805A3F",
"K c #815B41",
"L c #845D43",
"P c #865D43",
"I c #805C44",
"U c #825D45",
"Y c #835F46",
"T c #845E45",
"R c #885F43",
"E c #876146",
"W c #8A6146",
"Q c #8B6246",
"! c #8C6447",
"~ c #8F6447",
"^ c #866148",
"/ c #886248",
"( c #8A6449",
") c #8C6449",
"_ c #916446",
"` c #906649",
"' c #92664A",
"] c #91684B",
"[ c #94694C",
"{ c #9C6E4E",
"} c #9A6F52",
"| c #A27252",
/* pixels */
"fb32<<f33Lt83zTSS^i42/<@sj<&tl&$$-%-%2<&%<C5<7i1%=1z2<e7,&<1zh2<<bjRz;b4l`&<t33&<2l8hj<tzE3ut24&*<243t4f2>332:",
"K43t32f<qi:&<t@4zb<<&f234S*q835&5j2/<&5&5<23D28---7&jG782d2<z,&2j2%bJLK&3t23t*U3jih4tt<<<b3>t3sz42i24t22t>s442",
"4332<<<32:<2t<&7&W22&ff3<(2t8-&3<7;%$$2$7j%2&@&#-7i%3;%<77<b<22<2G2fK`hJ&<_Kb2M2*K48ztb2Lt3L22zh4Lt<2s4242t>3<",
">3tzsW<<Gjq2<<GUGbs4%N@<T%3q2yq&--<l-$<3ti+-&-$-=;8$,&<12<<2&%2K-<zG;<34$-bbh*j23biWt<2zu2LLfzt&tu2tt22t432<22",
"24i&>2>Gf24*2<&<<&:&2-&q@7&2Gl&<&=hu---i-<<-1--<2;<7-7-<<q4<&-<z3zWb33<@&&3&&322fb[Jj>ih4fEu>:u2t<2bjjbh3tzN2&",
"<4&<>2h4>4!))2<<fUb%q222<3<2i3<2<&7++<21;q<<<#-<<<i2<&=<jEt<3zd224Ebu<2,$--;283;232i%Jh222&2i2t33ibhlf4ut&3b:3",
"&*2223h<&ii&&&-334>4j1<7<<<7<<822-&&&1-<<7<q<<<-5-&2j22<<<t4h2qjNbWL:u2s7;;t2KK&<2<2>b&&4:2>tsi&<2ML*&2>t<3342",
"<:4<2<<<&3*&&&t<@%<&<2227<3-<2<2-&=&&<2<t&%,@<q<y&7-&$8t2*&4i<<lh&bJ43<:2;8l3;3&bb<82%%><>42&224&@&3<<<i23<fb>",
"28<,2tjit4><&<7<2<72t22<&<248287&;--%%-<yt12<y22<322<<j722tj2$*><bsKN42231f<<4b<j*4l#,4&2<s7t&3<#,@$&<-,242&<*",
"<:2<&h24s<<-2;34t<22-&<-<-7<&2<2&---&<<37it<<2<42*3i<<34<<&3<&<3bb2S>3bGt:2<4W%sl3<>%s<sAzs3*&3%%7<72&<<>&23t<",
"23:2<i&*42b72<432i2C7<t5<2472q2Cq<-&&<<8-33qK*2d<&*44G<3<&7;sG-@2<zz4<42&q&<3bii<&3<<<%1<2s37<&<qsi2<&&%<<4244",
"-&&2<<q22ji232tit-7i<872<<7qt,7t<24<724;-*2j><-4*&;3z&<5fl3*ZSGs4<t4h42&%2&WGs2<2<3<Gf&%%ju2q&&%<4q&f3q&&<2bf4",
"4<*%<%&<<<&jq22sZtjt<<5-<72tzqtq<-2<&32<&t;<;332<<4<2<ttq22$&$W32sz4<S2C>9m&G4&:hf<t%<%<2-$tKt24tj@=%#2&%&j:%<",
"<<2<&-242<3S<s<<278tt2t<7;3%<32<-33283j4i-&2<2&<it<<q22,2sq&-<i@>9f2f3f&<s:&3@-3s&&3<&%@<&&<&<&$G,7-<<2<<%4&<<",
"&-3t3&&&72<2<<,2te3jjj2i2<-<<<&223tj82327t<8&&zt<qi3i3<bq2&2<%@+1,%%%:&@@>:9-@<&:&<b&+$3<2<<&&<<-2&@<7<*&<23f2",
"<$7@23<<2%-%-7q33388zbj]h7*2<%,2<3<j)qi<7;--<22<qz<<23334<<-7j77AGKGtG3&<2:22j22<tz@1*&%%%<ij<&j<<@=%<<-28<<&<",
"$7<<<<&2<1>>:399s2f21<b3&@<1222<332<D&<%-;<=&3;<--;3;<3<&-,t<tjytb3&lt2*&2s4t<3j4423<,<-s%-Zt74t<3<<22s<j<<3<<",
"3-&<&-<%<3<7p12s9121:<<%%33<<<&<8-<rb<<<8<<-;<8t<f<2<<2t2%#<-2GK3S&SL82;-itzlKs2224i<<s2212b@<<*7N<7s2<<323*&*",
"8<&<<S7sl<3<2343&21,<z32q&<<287725<<7-77;8i<<l8;-&ti<3l;<;-<@M/ t3Ktb&&327q7b3-44s<ijf<2bi228&3<2@$<&&2%<*&&&7",
"&<&qf3qt><22<<37:<&4z(>,-;<&442:<777jey<5883;<<2Kj7b7<<2t-t2Cj&%3iKW28lh2t-24s2t2G3&32%%&%2$&&,%+%<33<<2<<<<f3",
"<<%-2333<f<<<7<C7%<&3f:<&&;22jjy37tZKt<-82&i3t53<$;;;<i32jWWU<<12<K3M2<iq2-%#<%2tp:2&&%$&2&&@22<=8t722-&22<22;",
"<<<t232<<t4q:<qt<2q<<<&&&7223-2y2<3&l2-<-;=2<822242<38|<4LWft7t[%24i3&&bj<&%%2%7%2%<&%2Usj2s&<&,7q<&<3<u&2<::&",
"%&2<<3:32<<&<7t4<<&2Cs4t2738<2d2<21<<-d7<<1<88723835<<43tLi<<&7&23jZ4<8t2t&<&Z<_@-&<<<7>&Kq22q&-&t&2$q-3;22<22",
"2&24z222<j3<<33:&&,<3S323q2t<2<<e<t4yl<25<2<<27-2<8;>tMTq&`&%7jtK3-W23j3<@&-#C+<%+<&&<G*<&&-<;-72<<<8z<<-t&<<<",
"2t<&<&33<4>%,<<&&2<233t4s7s73tjzy<72C3-&<<<5<<<$$=;---z$&/i<h<24O@z-q7&3<+7&73%=+%#=7tz#,@,&$%--&j&*<<<32<&*<;",
"22%q<<f4332:<3$%&-222<sz7473jjGZ<<<<Z2<558722<##--;-%&&%22j<<%&$%2374&1tUt<X-@Gs<-+7Zj<&%X5+=,2<<<2<,43<:<2tt3",
"<&3l<44:2::<s:1<qj<2fsfs7q2<q<7t=<-77t875<<7-==<1-;$&<%-q3<t#<<$&7<-@%2l7@+<$+^<---1<;3@-,2<3-<;43<,2q3:q3<34*",
"<%<<:*222&<2<%,&<3<,72<fjz1<<75-Z7<qit2<7<<<<--#%$$%-<-523Gh2q<&23$5&-t7t-@<X-257,<q2t<j1--<<2%<:<%<<33z<222ji",
"f7<&&:<22qz2&#,<&3f<22222<<<ed7S<23yltjV7<1717#<-%X=X#17$#5%23@28$$<X-t<,2-##%-1-<<<77322<%&+<N><<<q<2j4<2<28h",
"4&fq&:22<24>3<-&%-37q49f7:<<22tj2ey88it5<7;<--#=$$==#+,--+%$<%#q<1=#==Z-z-<<=@$<-7-3<2@$<%-<7q4&<<<,2,&<2<<lbh",
"4:<&&<,3&&<2<#&%-1&t2>31t<<,,<z2<y73<1t8<2<<C1,==$$-+-%=77,#%%<qq<<yz%%<UC7<72<,1<--&t2<j2<q<2$<%%&<2%,233t3<&",
":%<2<<<&2<<<s2<<5<337js7h2q<-<3-<7t8727ydt15j<<;-=----17<7q=-%-$-U(3$&<1Utl247si<&<<yKb7<<72lz42,222,&2<2,2b-<",
",<@-23:<*<%&&1<-2q<tj3&7t5j2&-2533y8<e7CiCH5--,-<<-%X=1<2C8-%t&%,t{<@dZ3tj2$2yd<27q&2h43tt<8<3<<-;lj;5;22,<4;<",
"%=%72@%,<<<<228<7<328bjjq<<<<727<2-8<<5%<1-$##%%$%-=,11l7l2j<<<%<zb4j7Cj2qlt<22127<2-it3tb-8&3-;<t3$&3<2<22&%<",
"&-%---<+&j&<1<%&<-8;<2q2<<72<7<<78C855<--7<,X=O#7$#==%$%% 2q%<%-<<&&<4q8<<<1<2558Dl8-%&<43qqt82q8i32424&<&2<2<",
"&&<<,&%&22<<j32-<72&<7<-57<337<72y32C-<-1=#===#%--===,#,$&3t7,<<2% #<t7<-----;8t3l8i&%2&<&<4t33h<83j<t;&<<3<<3",
"%&-<,%-%<<<222772<12<<5e527<78i2<zzU/;---1-==%===%$,=$%,%%#+7,-#<<%%<1q<=<5<=--i&%2%&<&@@%2t3i4&%33&$<&<&32&-2",
"t-%&<,--<t<&<27<e<27eCV7<<7<7tC47,1i%%-5-51,-1%---,,,,,$2&#--#=-:1$&&<2%71<5;-&22&--<G-<3<<78;38t&3382<3<34tl<",
">&%jq2&&<3<14<<2<<<yqtK-<7-<53<2,<<<-<17<<--55--1-1===11,%%-,1<-#%<<<<1&%=-<e<-2*27<2<@+%$<<2<&<*;%23;<q23tq<2",
"<<<&&&&:<q2s$7&2l2-<<<<-<et%<-5-<1U--5%<<57C25e<,,1=,1,%=X#=%=&$%,-<&<-<-%-1%#---2<2<---=-<<<&--<;2288<;33&23y",
"<3<<--$-<<t72<<<yy-<27<<&<e-7-<<qYb-5&;<<y8<<181771C72,=-=,=-=%1t17&<,#&=1%=#-3+%&%<#$-%<--<-<t7<<<8<-&<2<<<32",
"7<<<-5--<-%-2-<jCtt;<q7=--<yq2@1;27%;;1-2<8yC-=$-,et7d1-,===,7=8<@%%,772-=$$-@778&-$&2+ +=<<7tCt-e8822122<-<3&",
"-538<q-<<&<<37j<<$@-47<t<5<27775-8-&5<88<7-7j-=-1q,sY----,<,&7%<2%<7,,1z8-=-<=%&q,---5<-=#-12=l<;<<2885<<3<<tq",
"<2<<2&&-@&1-&&<i-<<2;7<<%7jt32-<tVijt8555<<1--,1%%=-<%-1j,=,<&=-%-<<<4<C$<---#.7j---2--%%=<-7;;&%-575<<t<88Cl3",
"7t&&,<2%<e-<;-<;&<-7--&<&&<b<-<--5C558553-=%1%=$X#=-#=#,-<%=%=-7-<t=-$=$$=$==7-1%--8-+<q<,-=-=83=<-<<-<%-<t<M4",
"-332<tt=r8%-*;<%%<3i72<&-772<57-<y1<5e57-#========,,-=,==-%%-&<<&7%<1$5<7<--%%%---2&O5%-<$@-<7l<--<<<&251<-;2$",
"8j<2<--2Z&<2&-<<<<22q72257317<72C7ie<;--<=y787=-X1=1<,<7<7e<2q,--@X=&-<;i&-$=%%<#+%;75<<7Sq<78z<-;;<23C<<<223l",
"t23,-%,<-3%<;;2<-y755<5t<<iy7777i81<;=$2<-1-7<=###=$<d=%-7qtt2-&%-;,-<U7==-#<<%<82<1l&&@%@<%223KU<<872T;8<j2t3",
"Tt3y<<37-<t5-yj1<<5532227-2jt2<<1<55=1=-<<5q5,11===X=1%=12<2<<2f2-%X<1;%$<%-;1-1&<&<3&<=%2j&t$#8+%<2,2:<%*<-z2",
"24yT<Wq2<l<<&<T3&-<55575t8<%2<-1jy7e<=#$%7-e<--X=1=#,=<,-<272tW4KG=,<il---77t&&&,;-27<y%<&22zt-%<<22&=<<*2<<G-",
"7tbll-t<Z<43-=l8538252;<2eli74777ZC$=1$11%=<C1=,===,=,1,<<qqjq7t4;qjC/Zl<2<#<%&&%---%2<<q7ijD;<q<t<23<t3<3<)bf",
"22&ti28tj&<2$--2375747<2yHj<72e577<=UdeZ7-52--#-,1==,=#X<22sUHGKTtU<[[D4Z%<-I37j1qi-<-$y8<&j2<<22tf-,<32333tiK",
"lhrj38i87%-<-lC8y8<7qt771i7jU3jq77-1t2<-<1---==,==#,1=,,-2$44&2&3q&-bi#[K<d/8tj3y<<%&&-3<<<8t2&t1<<tZ<<i3<44KM",
"lRt28l43$%%,82tiZtjq7ZylbZZN7,qtt<==<<<-V1C<7+eC1C<=7,,,<&2<%$4+<<<-3+<&&b3q-tt33;<l8252<tZK3:<4f7242<jhjt<2Gi",
"l/t<8Rl7G32--y|b4l<q8qjtZ8-22575Gy7<7-H-<<<-<-<-,777d,$=,-,-%=%&2<<32<#<-223&;t4<7<i83<8tjitif<qj2j2<32fhKWf&j",
"b2i47<T24d38tj8%825jltlilji<7Zi415<7<YZ-7-%717-C7,t7-<,y7*&1-tq3l-<-<&%3&&t2<833l<<qGjjili7j322:2<3*3ij*2t&f4<",
"t&3>22<L224WWz&23&27Dj<<2737277e,<5<C<2--#,7-<<<2%<-&717<q&<--,, -;-7t%--8<%7-Zt335tt<<j<&2&333&<,t2<t22t8f4<-",
"3tzL&33KbS/Lbt3)&37t5iq<<-<<%5<%-<-<&4&<e7,C--<1<--==-=71$%%,,%--8&;e-&-jC<<2tZl3tt/&2<<&-4ffz3<qG228t&&*2bUz<",
"24l**<24%jMb&,&zt7il2<&<-,2i1I#=,q<&-t<-<ytZy<-yS5==--<-#=#=---#-<-;5$1<<$%tq&3l_t@<i34<bqb443<2tz4l<4Rjtstl33",
"2q%7<t4<22qh<qq48<3-<<3ts=-C#@%=1<--<--<<7t<15<1<<-5qd5C<2%d8747-5-;%2-282-8%2zj<l<<MDi<j2ftGtijU7hb3b2h)<fqlj",
"sqGt2<23WbKK3><4@<7;32<&-+=#e-=-Cze<5q7<-18777e5<<<1-<1+%&1<-<33822-<-25&%2<3/G&<% <232<33bTG2>bf4Wt44<t%<K2bG",
"zit228t*&&22&<3<37;t72&<#<--K<<<7l7$12<<&7747,,-1-<<-&&-y<<<27&j<&&8&ZD3<74<3fbh<2%<<@<3&&3ji3Kt:t23<4zibGGMli",
"h2<C`RL<>2lTb2744t&<&233,<#<-%&%&<<<812<<7--,=-11<<--<%-2&<%2;&&$<2;<7<3tt<ZGEW&<27-&2<Dq<33<3t2f<tqbh2&2~M&-4",
"K&-[2@24<4<4-t3bt<<-<i24<21<CI--2jCi871<<=#-5-<<<7172371e<&%&<&%%j;#24&<t<2l<jKf<2&<tt-&<2h>t>*::<s224t24*;2<3",
"3<24%13<42338*&GG4278Z;j<372jM*ttjjK<@7<e1-=<,-1%##-172tq<--j<-<-&&88<8j2&<:Stblb4U34&>G2Ct3h&t<df2i<2<:2:3>22",
"tMq&>2*&<<Zt:3<<3f2t<<tGS<<%+&<q5733-5qq77<<1-,-#,=<y-t7<8-j<8--#$-<@<-233<2z<i*&i<&-<zb2<&&%%&34zS42ztfKbi22-",
"j3>43<*3-<zz2i-<tG]<3t4b*<yq<<8l7t<-2te<-1y-<8C<1=-<--&&-<<KD%-5=55<<<8&4G<s>tGS3t$42SGtl4&4,t&1&<tfz<3fKv44q2",
">44fW7s2tT!blt822WTt3:f2&tj77<q72-<@<t<2&y--<7$<<17<<<%&2-1<2-It7I3%e24;3:W34j2&t222zjS&&tj<t32&22zGGssvv22:t2",
"i<&_]222f2&K<<2:83<&bKiljtlh3<IT2;%%<j7t37<;q1<7r2<8V17588<$;388<4>2l$t<%&4ot32t2t&dq%3@4s4<32&<4q2443u!4ht33<",
"44zhu$24NM4f2fzGl<242<biZ-tMjl82DtyCI43t38782t22-<55--3riZ<2-#&2<<283<;<O%@-t%&%2@#<<>:<2%22f&&h2f:34>222&<3&*",
"34*2&<vz442f>>3fh337jh4b2<ClGh22<34jKhi2<qjtq-,72-i558r3<jl23C22<tj&,,&2&Ut2ZzjZ73&<222K<22z$sd<2<<Eh<U3>:4*2<",
"t2&2<t>&2<4b32<&&&<f*3ftll3thibT7TTh2K22ts-3q<<e2V5i22&%<&3<3K<2tt32-2<3<<ljh42K4q,2hts32qz3222<32tNi4<4M>t37h",
",2<<<<7:q22h%,:3}!bb23h4hT4<bKl38lhtZ*<533tTG4i<88j21-%=<8-<bD5&Zby2b<<:%)[%tH2t&&2s4bs4<23&bG3t3bft44it32s3s3",
"sG,422427<22<<3fi$<f333KhbtUMlK<titK<87-28-324<--;;2<<<-%=+t4@4;22l-7&q2sS&*fM/S2btb&&J34ztt4t7&<%2&$<&&>>ttt2",
"ftfh2t<2G<33<2t3&2q22*4434it4iL44t3;<83tZ2j8&<7-18ZV7--$=$#7;-2*<-8Kq4KWU822<ttN><4:&&@&2tz2&&@&&3<&44<24fss44",
"z-44<zt34t2G<22E4<N4<2st<4iqbMh<%;<<338i<273723225rl-<7-17<15<UD2<qGNG/Lftzu<hKi&<K<<&&3q72&2%2)jvi3t2<fft3N>f",
"f4lj83t43fti4j[M2&h&lGq24bu2>u&2-C28<3<3<2Kq<5<t272<-Zt2y7<-2jt&7<j%<4M2%@34t8M>tz3233<zf4%<32>K>zthts42vttv42",
"bNbNhht<<4t3j3i32b224&<qt4t&<<2<2l&<2238t8qizG25532&<222--&2<<-2+74$2@L3s3f432Lt444&<<:f.+&<$2G22&&4<>4jz224<i",
"ZKLht4*273WzZ3i<7t3t3*24td3tt4ht--22l;tC8jyqt<&<2;;--;<8&4Ul<ji85-tCTliZ4@3&&K-332uK<><<b12%4iG&&&<<<2i2244zii",
"RTht3t8G3K2>tzttzflK2l33tj3j3*<48lyt3t84tG8-<-2-;--5<85l-2<<337<7G7<232t&<-<t2<2<hL&+>$3b&<<2<f*,4t434i43j4t42",
"LJ2tf2z4&4<2t3LJb3K*3i3il2<23Zt<3liDtz3i34t8<tCU32jbG-lG25222<-(~Mh-<ttD3t<lt3<<3Cl>*3&,<-7<7ft3q73-titit3tluD",
"T_btNN[iu3fz!3NMMKb&l23M4iKL~bil*8h22liz4<<<2t<i<<t2iDt2@&&28=7z&&<@8<32*<,f&><<<4<47<<qGq2&242t48<<4Uh<jttKbK",
"_LG422ubb3vWbl44<lh2*23323b<u*7888i<8<-<&3328i<;-4j5-&5&<8<<<&3&&<@-3<8<*&2Kj<438N4b232<j3<&>22,&<3itb<<*<lli2",
"NMK3bu2<uLWEvih22ftW32t333Mt2l&<&2bt2qt23t4$;33%-<73&<q<<<485j,22$#<&&j<%<-*48&4z2T3<%2&+ qU2fb3jttilhh2trt322",
"bLbzE!hfGLEh&&t32JKb%*it>3i$2itb~D3jj3i<;h;---&&<j3-<<-%<5C4,<2*-&8,&77t*3<<tWZ&stNf%tts754b3jbhht822hb&3bu3<t",
"Lh`Lb_:GWWWM444>tR4&423&&2ft3*lbh<@242*<2KjG27-;CKRIj785-%*Odt8<j&<@tUDl373<<!hjf>3377t4&tt4t2GibK3ihh22t42MtD",
"Jh`!NiLJ`hh23<4st3<tt<442*34l2ji<3228i4<--4@+<23t2h;#<<q%--%<@2T2%<77&<i&2&%q2:<LsSs3>K2t2JJj&<2lZhbl423j8iLb4",
"qKhLJ`L>JNhLz4K3Glqh84tl2:34<2tltl24488833<258;5--<8<q7y-%+,Kjb;&%qt&z&3tqzGf<sG&ffb42GqG722W3jLZ3httttjl4jt2h",
"ihtWKW4NhMNbMhMK~WJht24i*<<3<<<<-4*lliTJ3843h228t8DZZ-yZ-==-<&&<&7423&&&&32t<@54fNff3NZz)tij3hbNbKhs3fUb3tbftK",
"Nib4fLW~KJ`WNKf{]LZi*<2j3484lGZj4<U3l4R;ii4je22<<ii5tHt<@3;5-42<<4&<&<<&4:2&&<<<&s4tbu3KJSLLK!WzbhhlthhGhh3zzt",
"N4fth4bzth2JNtt_Mh{h<j{4ib4Ztj&*33tt<4t3844&222322C3&&3&<3<b3<<&-<273-44f2<A{fj224zzfJ2zzWt2ttbbi4tttjK~Kb4tGZ",
"~ih44u2>3b3Nut2i4<43ZiJ<i45hj4t2C<7tlTt3<-l8-<t&<<888<2;<&&3&&@-@-22<<<<&<&24@<tttjN3hzzhhz4tl8itjh2tt2hhtti22",
"Mi4Wh44&2:tt42fN224&Jb43j4ljD4M2t2bt4j3jt-q<32<78y<<j<;<<5Z-&<5<<27<3&72,&2<22f2*>244h44hU!utqj22htsGfMffh22ft",
"23thu23tJ24N3&:22th*2u3<b4tG24lIttjKtMh4&<42&j<8<81y-&%<-<G<-78<32&2jh<3-2Sz%&<:t1hj3hhtJhu>&tt24<bz2b44tbNtfh",
"44z<LNti323*>23>G:>48*2tjbj4&GLi&2i2t&22-2<<-i2&y;<e2tt<jt-#87qt1<22<q&23t[2@,<3L42t4Mt32h>t3K&3zzthfzNi3hvGh4",
"NhtL>>2bu<24::2ft<4ft22Z4TiblMT243&*<2qq77<tj*-23$<2<8773&-tCC3zl72&<><<<24&<33<2<3t22&22*<&i3<h4344t4*44jfht4",
"buTh2<2>2>2z344<2tss&:7i2KK!<34<4zbsz4Giq&-2tj<<23228Cjj8&iTtit<242:<2q<32<&%<q3&&t2T32L44ultbti4*Mtstpuf222ht",
"tN3324L4ui2f34q4S4b4<t7q3f_2b&&]f>2t%ftz<q<Z7D7-2322ijh28jK4lb&%#$&2bH,73Ztij3U*jl744i2l3hzfiDjtbtl3vMt33:ftt3",
"btL424z:44bGfut2444<2b27Kt2<:+2L42<3tzEu&<StjL3<7-l<8tt<2;3;M&@,<ss&,&2,&iS4tqt&423iiihjjLhlDtbJbl3bu4Jh2ufM22",
"blhh4433t3ht>421Li&<t73bLhi<<:$-$*<&%zNtjG3*t&<28727T3@%&*73l38j1ss<3<73z<2422*&223tlzbKLizt43l42MKM32h24h333N",
"ih422t4z2>>2423z2htfbqKb!L:<<%%-2<L2&<:&3<-2@&742<24t%<2q3zNW&2$$<&:G@%4tt3t&b4z24<&t2l3*33htf3b42t>tt4h3232u4",
"423342,<h234f22bt34t&lb2KKt&22<72&,%74:1&#-<&q-;,27j<dtjs7s<:42&s$&,7qst&bj<f23U*<jit4~lih4t23)K>it:4443>43224",
"4b4MM4tb4:4:32Gs3lb<&<<blMs2<tst:<G1z22<$7-1q2t%1&+-=<q<1K2&:422z4j<241z%ji<<tt>3H4444sMb>bGNMbh4st443232>22u2",
"i2f434Nts<3&>&4%&&2t<<tb2f&<z2%<3b324&$$$-qlq<-,1$1<<-q3342&<<2>43q&9&hz;lttz2&<3u&>*2t<&tzbv>3*tt4>2s3233323u",
"4t4tt4`h>>s&22<<:f2U3@h3GbS<4<qs<Gty<%7%<<%--4<<#7<-<<lszTjb3ibjM2<<3<3-<2D2h<43&3jNj32t2tft3z32344<2&2>*vziff",
"&b233i4z4]qbN2%z34@3ZS344<<<2<7S7G&<tq2dq=#&32Zt<-<e1<<4t4Ki2t2234;&&&2<<b4424ZhUiKW43ti2h22z2tz4z3fhtf2h224tt",
"hKzbb<<4vv42G<qs%b#$<j&3jqtzz2f<4<@2q<227+=-+#2<<-7,-7+%<!Gjs<j*yGt8j8jtD284ttW3><bi&34tjb44b2<233p<2t4>u>2vzf",
"bbNvJt<<2>u223z<2&<,<%<<%@-2&&<&4%-83+e2#%1<e2-;+%C<1-12>2G|b2q2{ilZttj3*4<23iht<7t3<<huttJ:4322t4444tv2z>3bJ3",
"2tKbLztf3f3tft2&<,<4Z<tzGzjq3+<&4-z;;<2%<&@&<<C-@CG2Tfi2&&*JithGl2hut23l3th&ft32tUzls32bth&zK2342324ttv24s3ftf",
">titufzzW22bz4%%;<s:2jqj<2z33&t2t%<8jt<2<<-7,74<73Z-3&&@<>:&%K7Z2&Mt8iqbjMttl232jzTiqs2bMuz32<hNt2t3<44<34t3vN"
};
