/* XPM */
static char *de2eb02e4d554871d1bec6990afb10f3JHsWiLU2v3no23Ug[] = {
/* columns rows colors chars-per-pixel */
"28 28 2 1 ",
"  c None",
". c black",
/* pixels */
"    .......      .......    ",
"   .........    .........   ",
"  ...     ...  ...     ...  ",
" ...       ......       ... ",
" ..         ....         .. ",
"...          ..          ...",
"..                        ..",
"..                        ..",
"..                        ..",
"..                        ..",
"..                        ..",
"..                        ..",
"..                        ..",
"...                      ...",
" ..                      .. ",
" ...                    ... ",
"  ...                  ...  ",
"   ...                ...   ",
"    ...              ...    ",
"     ...            ...     ",
"      ...          ...      ",
"       ...        ...       ",
"        ...      ...        ",
"         ...    ...         ",
"          ...  ...          ",
"           ......           ",
"            ....            ",
"             ..             "
};
