/* XPM */
static char *_a893e3c90c5490abf3673b75bd12d1dBchWsryB3nsgWAui[] = {
/* columns rows colors chars-per-pixel */
"32 32 4 1 ",
"  c #3BD421",
". c #4B148E",
"X c #69F692",
"o c white",
/* pixels */
".............oooooo.............",
"............oooooooo............",
".........ooooo    ooooo.........",
".......oooooo   XX oooooo.......",
"......oooo      X     oooo......",
"......oo        X       oo......",
"......oo      oooo     Xoo......",
"....ooo     oooooooo   X ooo....",
"....ooo     oo    oo  XX ooo....",
"....oo    oo  oooo  ooX   oo....",
"...oo     oo  XXXoo oo     oo...",
"...oo    oo    ooo   oo    oo...",
"...oo    oo   ooXX   oo    oo...",
"..ooo    oo   o      oo    ooo..",
"..ooo  XXoo   o      oo    ooo..",
"..ooo  X oo   ooX    oo    ooo..",
"..ooo XX oo   Xooo   oo    ooo..",
"...oo    oo      o   ooXX  oo...",
"...oo    oo     oo   oo XX oo...",
"...oo    oo   oooX   oo  XXoo...",
"...oo     o   o      o     oo...",
"...oo     oo        ooX    oo...",
"...oooo   oo        oo X oooo...",
".....oo     oo    oo     oo.....",
".....ooo    oooooooo    ooo.....",
"......oo    XXoooo      oo......",
"......oo    XX    X     oo......",
"......oooooX        Xooooo......",
"........ooo         Xooo........",
"........oooooo    oooooo........",
"...........oooooooooo...........",
"..............oooo.............."
};
