/* XPM */
static char *_fee952ad42a4142e5f06cd107a63932vSfKQsK7Gblxy0ea[] = {
/* columns rows colors chars-per-pixel */
"32 32 4 1 ",
"  c None",
". c #DA3D32",
"X c #4660A7",
"o c white",
/* pixels */
"            ........            ",
"          ............          ",
"        ................        ",
"       ..................       ",
"      ....................      ",
"     ......................     ",
"    ....oooo........oooo....    ",
"    ...oooooo......oooooo...    ",
"    ..oooooooo....oooooooo..    ",
"    ..oooooooo....oooooooo..    ",
"    ..oooXXooo....oooXXooo..    ",
"   ...oooXXooo....oooXXooo...   ",
"   ...oooooooo....oooooooo...   ",
"  ....oooooooo....oooooooo....  ",
"  .....oooooo......oooooo.....  ",
"  ......oooo........oooo......  ",
"  ............................  ",
"  ............................  ",
"  ............................  ",
"  ............................  ",
"  ............................  ",
"  ............................  ",
"  ............................  ",
"  ............................  ",
"  ............................  ",
"  ............................  ",
"  ............................  ",
"  ............................  ",
"  ....  ......    ......  ....  ",
"  ...   . ...     .... .   ...  ",
"  ..      .. .    ....      ..  ",
"  ..      .. .    ...       ..  "
};
